<svg width="275" height="258" fill="none" xmlns="http://www.w3.org/2000/svg"><path d="M260.376 219.5h-31.6c-.6 0-1 .5-1 1v24c0 7 5.7 12.7 12.7 12.7h8.4c7 0 12.7-5.7 12.7-12.7v-24c-.1-.6-.6-1-1.2-1z" fill="#F16A51"/><path d="M256.576 253c7.1-4 19.4-15.9 17.4-24.3-.5-2.2-1.9-3.9-4-4.9-4.7-2.2-11.5.5-12.3.8l2.3 4.7c1.6-.7 5.6-1.8 7.5-.9.4.2.8.5 1 1.4 1.2 4.9-8.4 15.2-14.8 18.8l2.9 4.4z" fill="#F16A51"/><path d="M247.876 209.9c.1.2.1-.1.2-.3l.2-.8c.1-.5.2-1.1.3-1.6.1-1.1.2-2.3.2-3.5-.1-2.4-.6-4.9-1.5-7.2-1-2.3-2.4-4.2-3.9-5.7-.8-.8-1.6-1.4-2.4-2l-2-1.4c-2.3-1.6-4.4-3.7-5.9-5.8-.7-1.1-1.2-2.2-1.4-3.1-.2-.9-.2-1.5-.1-1.9.1-.2.1-.4.3-.7.2-.3.3-.8.6-1.2.5-.9 1.2-1.7 1.9-2.5 1.5-1.4 3.3-2.4 5.1-2.6 1.8-.3 3.7.1 5.6 1 .9.5 1.9 1 2.8 1.8.5.4.9.7 1.4 1.2.5.5.9.9 1.5 1l1.9.3c4.1.7 7.8-3 8.4-8.4.3-2.9-.4-5.8-1.8-7.9-.6-.9-1.4-1.6-2.2-2.2-.8-.6-1.7-1.1-2.5-1.7-1.7-1.1-3.6-1.9-5.5-2.5-3.8-1.3-8.1-1.4-12.1-.1-4 1.3-7.8 4-10.8 7.8-1.5 2-2.8 4.1-3.8 6.6-.5 1.2-.9 2.6-1.3 4.1-.4 1.6-.6 3.4-.7 5.1-.1 3.6.8 6.9 2 9.5 1.2 2.6 2.7 4.5 4.2 6.1 3 3.2 6.2 5 9.4 6.4l1.2.5.6.2.4.1c.6.2 1.1.4 1.6.7 1 .5 2 1.1 2.8 2.1.8.9 1.6 2.1 2.2 3.5.3.7.6 1.5.8 2.4.1.4.2.9.4 1.3l.2.7c.1.3.1.4.3 1.2.2.7.7 1.1 1.3.8 0 .2.2-.6.1-1.3z" fill="#454545"/><path d="M125.9 120.1H80.2c-11.7 0-21.3-9.5-21.3-21.3V52.9h86.3v47.9c0 10.7-8.6 19.3-19.3 19.3z" fill="#9A1C27"/><path d="M169.3 187.4l-130.5-2.2v-13.9c0-22.7 27.9-43.8 55.2-43.8h20.6c24.3 0 54.6 21.3 54.6 41.4v18.5h.1z" fill="#05774D"/><path d="M110.7 98.9H94c-3.4 0-6.1 2.7-6.1 6.1v26c0 7.9 6.4 14.4 14.4 14.4 7.9 0 14.4-6.4 14.4-14.4v-26.1c0-3.3-2.7-6-6-6z" fill="#FBC39D"/><path d="M88 127.4s1.2 8.5 14.4 8.5c13.2 0 14.4-8.5 14.4-8.5H88zm55.701-61.2c-5 0-9.1 4.2-9.1 9.4s4.1 9.4 9.1 9.4 9.1-4.2 9.1-9.4-4.1-9.4-9.1-9.4zm-82.601 0c-5 0-9.1 4.2-9.1 9.4s4.1 9.4 9.1 9.4 9.1-4.2 9.1-9.4c-.1-5.2-4.1-9.4-9.1-9.4z" fill="#F9AC7F"/><path d="M99 130.2c1 .2 2.2.2 3.3.2 3.4 0 6.7-.4 9.9-1.3v-.1c17.6-4.6 30.6-21.2 30.6-40.9V38.7c0-23.3-18.2-19.6-40.5-19.6-22.4 0-40.5-3.7-40.5 19.6v49.4c0 22.2 16.4 40.4 37.2 42.1z" fill="#FBC39D"/><path d="M137.7 72v13.3h-17.4s-3.6-9.6-18-9.6-18 9.6-18 9.6H67V72c0-5.3-1.9-7-5.2-7.6v23.8c0 22.1 16.4 40.2 37.2 42l-.1.1c1.1.1 2.2.2 3.4.2 1.1 0 2.3-.1 3.4-.2l-.1-.1c20.8-1.8 37.2-19.9 37.2-42V64.4c-3.2.6-5.1 2.3-5.1 7.6z" fill="#3A0909"/><path d="M89.8 91.1h24.4s-2.2 9.6-12.2 9.6-12.2-9.6-12.2-9.6z" fill="#E6E6E6"/><path d="M198.1 257.2H8c-3.9 0-7.1-3.2-7.1-7.1v-.3c0-3.9 3.2-7.1 7.1-7.1h190.1c3.9 0 7.1 3.2 7.1 7.1v.3c-.1 3.9-3.2 7.1-7.1 7.1z" fill="#A1DAC5"/><path d="M180.701 257.2h-156.5c-5 0-9.1-4.1-9.1-9.1v-89.8c0-5 4.1-9.1 9.1-9.1h156.5c5 0 9.1 4.1 9.1 9.1v89.8c0 5-4.1 9.1-9.1 9.1z" fill="#B6ECD8"/><path d="M103.201 81.3h-2.3c-2.8 0-4.9-2.4-4.6-5.2l1.2-9.4c.3-2.3 2.3-4 4.6-4s4.3 1.7 4.6 4l1.2 9.4c.2 2.8-2 5.2-4.7 5.2z" fill="#F9AC7F"/><path d="M105.4 7.3h-8.5c-1.9 0-3.4-1.5-3.4-3.4v-.2c0-1.9 1.5-3.4 3.4-3.4h8.5c1.9 0 3.4 1.5 3.4 3.4v.2c0 1.9-1.5 3.4-3.4 3.4z" fill="#952C1B"/><path d="M58.9 52.9h86.3V42.7c0-20.9-17-37.9-37.9-37.8H96.7c-20.9 0-37.9 17-37.8 37.9v10.1z" fill="#F16A51"/><path d="M105.1 27.2h-7.2c-6.5 0-11.7 5.2-11.7 11.7V47h30.6v-8.1c0-6.5-5.3-11.7-11.7-11.7z" fill="#3A0909"/><path d="M86.7 40.8h30.101v10.1h-30.1c-2.8 0-5.1-2.3-5.1-5.1.1-2.8 2.4-5 5.1-5z" fill="#FE969A"/><path d="M91.6 46c0 1.4-1.1 2.5-2.5 2.5s-2.5-1.1-2.5-2.5 1.1-2.5 2.5-2.5 2.5 1.1 2.5 2.5z" fill="#FF553C"/><path d="M91.6 46c0 1.4-1.1 2.5-2.5 2.5s-2.5-1.1-2.5-2.5 1.1-2.5 2.5-2.5 2.5 1.1 2.5 2.5zm8.119 2.457a2.5 2.5 0 10-.837-4.93 2.5 2.5 0 00.837 4.93zM111.9 46c0 1.4-1.1 2.5-2.5 2.5s-2.5-1.1-2.5-2.5 1.1-2.5 2.5-2.5 2.5 1.1 2.5 2.5z" fill="#DB3A40"/><path d="M86.4 62.7c0 2.1-1.7 3.7-3.7 3.7-2.1 0-3.7-1.7-3.7-3.7 0-2.1 1.7-3.7 3.7-3.7 2.1-.1 3.7 1.6 3.7 3.7zm37.3 0c0 2.1-1.7 3.7-3.7 3.7-2.1 0-3.7-1.7-3.7-3.7 0-2.1 1.7-3.7 3.7-3.7 2-.1 3.7 1.6 3.7 3.7z" fill="#111110"/><path d="M116.9 40.7s7.4-4.4 6.8-11.8l-9.5 2.7 2-8.2-8.4 8.7 9.1 8.6z" fill="#3A0909"/><path d="M102.451 193.741l2.123 6.536h6.872l-5.559 4.039 2.123 6.536-5.559-4.039-5.56 4.039 2.124-6.536-5.56-4.039h6.872l2.124-6.536z" fill="#fff"/></svg>